HIERARCHY
ROOT Hips
{
  OFFSET 55.1176 58.1779 -7.22162
  CHANNELS 6 Xposition Yposition Zposition Zrotation Xrotation Yrotation
  JOINT spine
  {
    OFFSET 0 6.84637 0.3937
    CHANNELS 3 Zrotation Xrotation Yrotation
    JOINT spine1
    {
      OFFSET 0 9.49621 0
      CHANNELS 3 Zrotation Xrotation Yrotation
      JOINT spine2
      {
        OFFSET 0 9.09909 0
        CHANNELS 3 Zrotation Xrotation Yrotation
        JOINT Neck
        {
          OFFSET 0 23.3612 1.11378
          CHANNELS 3 Zrotation Xrotation Yrotation
          JOINT Head
          {
            OFFSET 0 7.05802 0
            CHANNELS 3 Zrotation Xrotation Yrotation
            End Site
            {
              OFFSET 0 17.0844 -5.63418
            }
          }
        }
        JOINT RightShoulder
        {
          OFFSET -3.83136 9.82631 -0.533491
          CHANNELS 3 Zrotation Xrotation Yrotation
          JOINT RightArm
          {
            OFFSET 0 12.8881 0
            CHANNELS 3 Zrotation Xrotation Yrotation
            JOINT RightArmRoll
            {
              OFFSET 0 6.50617 0
              CHANNELS 3 Zrotation Xrotation Yrotation
              JOINT RightForeArm
              {
                OFFSET 0 18.9501 0
                CHANNELS 3 Zrotation Xrotation Yrotation
                JOINT RightForeArmRoll
                {
                  OFFSET 0 7.30093 0
                  CHANNELS 3 Zrotation Xrotation Yrotation
                  JOINT RightHand
                  {
                    OFFSET 0 14.6514 0
                    CHANNELS 3 Zrotation Xrotation Yrotation
                    End Site
                    {
                      OFFSET 0 0 0
                    }
                  }
                }
              }
            }
          }
        }
        JOINT LeftShoulder
        {
          OFFSET 3.83136 9.82631 -0.533491
          CHANNELS 3 Zrotation Xrotation Yrotation
          JOINT LeftArm
          {
            OFFSET 0 12.8881 0
            CHANNELS 3 Zrotation Xrotation Yrotation
            JOINT LeftArmRoll
            {
              OFFSET 0 6.50617 0
              CHANNELS 3 Zrotation Xrotation Yrotation
              JOINT LeftForeArm
              {
                OFFSET 0 18.9501 0
                CHANNELS 3 Zrotation Xrotation Yrotation
                JOINT LeftForeArmRoll
                {
                  OFFSET 0 7.30092 0
                  CHANNELS 3 Zrotation Xrotation Yrotation
                  JOINT LeftHand
                  {
                    OFFSET 0 14.6514 0
                    CHANNELS 3 Zrotation Xrotation Yrotation
                    End Site
                    {
                      OFFSET 0 0 0
                    }
                  }
                }
              }
            }
          }
        }
      }
    }
  }
  JOINT RightUpLeg
  {
    OFFSET -6.06837 -1.11278 -0.933477
    CHANNELS 3 Zrotation Xrotation Yrotation
    JOINT RightUpLegRoll
    {
      OFFSET 0 17.1796 0
      CHANNELS 3 Zrotation Xrotation Yrotation
      JOINT RightLeg
      {
        OFFSET 0 -21.2743 0
        CHANNELS 3 Zrotation Xrotation Yrotation
        JOINT RightLegRoll
        {
          OFFSET 0 21.3439 0
          CHANNELS 3 Zrotation Xrotation Yrotation
          JOINT RightFoot
          {
            OFFSET 0 17.7652 0
            CHANNELS 3 Zrotation Xrotation Yrotation
            JOINT RightToeBase
            {
              OFFSET 0 14.8508 0
              CHANNELS 3 Zrotation Xrotation Yrotation
              End Site
              {
                OFFSET 0.0062947 7.19214 -0.829004
              }
            }
          }
        }
      }
    }
  }
  JOINT LeftUpLeg
  {
    OFFSET 6.06837 -1.11278 -0.933477
    CHANNELS 3 Zrotation Xrotation Yrotation
    JOINT LeftUpLegRoll
    {
      OFFSET 0 17.1797 0
      CHANNELS 3 Zrotation Xrotation Yrotation
      JOINT LeftLeg
      {
        OFFSET 0 21.2742 0
        CHANNELS 3 Zrotation Xrotation Yrotation
        JOINT LeftLegRoll
        {
          OFFSET 0 21.5412 0
          CHANNELS 3 Zrotation Xrotation Yrotation
          JOINT LeftFoot
          {
            OFFSET 0 17.5679 0
            CHANNELS 3 Zrotation Xrotation Yrotation
            JOINT LeftToeBase
            {
              OFFSET 0 14.8508 0
              CHANNELS 3 Zrotation Xrotation Yrotation
              End Site
              {
                OFFSET -0.0282102 7.19214 -0.829005
              }
            }
          }
        }
      }
    }
  }
}
MOTION
Frames: 6
Frame Time: 0.00208333
57.0851 72.3656 5.47025 7.57172 39.3812 -13.6339 0.879504 2.56689 0.608708 1.73777 9.14416 1.06942 1.73004 10.7887 1.04224 10.584 42.6043 -9.72089 7.51722 -1.46711 -3.17662 36.3464 -5.43753 -1.80017 114.961 22.2424 -55.9404 1.57472e-006 4.95179e-007 -3.41596e-006 22.3705 70.1092 -16.8212 -3.04045e-006 -1.09151e-005 -3 8.02892 -4.95084 0.697403 -32.2583 -1.46386 -2.52915 -137.804 41.8202 43.1624 -7.34856e-007 -4.96868e-006 8.26993e-006 -35.9235 6.59595 0.0170584 7.73983e-006 6.18248e-006 2.99999 -8.02946 -4.95143 -0.697684 32.2417 81.5238 148.775 -180 7.01658e-015 179.656 168.007 51.8703 -176.051 3.98695e-006 -1.13323e-006 1.00554 -18.225 66.7684 18.5551 8.1365 25.2326 -3.48774 -70.3435 68.859 -111.844 4.54188e-006 -4.6773e-006 -0.20155 -17.451 -58.6266 -7.63514 -3.7565e-006 -3.99298e-006 -0.742303 20.1883 68.89 -20.3281 -8.13649 25.2327 3.48774 
57.0454 72.2716 5.40152 7.49085 39.3625 -13.4961 0.878189 2.56111 0.607599 1.73564 9.13257 1.06681 1.72792 10.7771 1.03965 10.5977 42.5941 -9.7239 7.51561 -1.43394 -3.17551 36.2895 -5.47914 -1.83476 115.047 22.2136 -55.9986 1.57472e-006 4.95179e-007 -3.41596e-006 22.3938 70.1387 -16.8478 -3.04045e-006 -1.09151e-005 -3 8.02892 -4.95084 0.697403 -32.1741 -1.51296 -2.49319 -137.837 41.7471 43.3243 -7.34856e-007 -4.96868e-006 8.26993e-006 -36.0159 6.74405 0.0546909 7.73983e-006 6.18248e-006 2.99999 -8.02946 -4.95143 -0.697684 32.0837 81.3993 148.967 -180 7.01658e-015 179.655 167.955 52.0181 -176.012 3.98695e-006 -1.13323e-006 1.00966 -18.2264 66.7636 18.5513 8.1365 25.2326 -3.48774 -70.0485 68.79 -112.181 4.54188e-006 -4.6773e-006 -0.201768 -17.4889 -58.7324 -7.66867 -3.7565e-006 -3.99298e-006 -0.745432 20.1862 68.8837 -20.3226 -8.13649 25.2327 3.48774 
57.0126 72.1814 5.33066 7.41023 39.3433 -13.3584 0.876909 2.55526 0.606372 1.73362 9.12084 1.06399 1.72593 10.7654 1.03685 10.6086 42.5826 -9.72528 7.51606 -1.4007 -3.17426 36.2329 -5.52061 -1.86932 115.133 22.1855 -56.0562 1.57472e-006 4.95179e-007 -3.41596e-006 22.4158 70.1673 -16.873 -3.04045e-006 -1.09151e-005 -3 8.02892 -4.95084 0.697403 -32.0931 -1.5611 -2.45761 -137.867 41.6752 43.4841 -7.34856e-007 -4.96868e-006 8.26993e-006 -36.1078 6.8899 0.09161 7.73983e-006 6.18248e-006 2.99999 -8.02946 -4.95143 -0.697684 31.9281 81.2737 149.157 -180 7.01658e-015 179.653 167.904 52.1671 -175.974 3.98695e-006 -1.13323e-006 1.01368 -18.2288 66.76 18.5484 8.1365 25.2326 -3.48774 -69.7552 68.7222 -112.517 4.54188e-006 -4.6773e-006 -0.202018 -17.5252 -58.8381 -7.7014 -3.7565e-006 -3.99298e-006 -0.748679 20.1837 68.8772 -20.3168 -8.13649 25.2327 3.48774 
56.977 72.0898 5.26288 7.32997 39.3236 -13.2211 0.875665 2.54933 0.605037 1.73172 9.10896 1.06099 1.72405 10.7535 1.03387 10.6152 42.5701 -9.72429 7.51965 -1.36733 -3.17273 36.1764 -5.56167 -1.90356 115.219 22.1578 -56.113 1.57472e-006 4.95179e-007 -3.41596e-006 22.436 70.1949 -16.8966 -3.04045e-006 -1.09151e-005 -3 8.02892 -4.95084 0.697403 -32.0162 -1.60812 -2.42247 -137.894 41.6048 43.6406 -7.34856e-007 -4.96868e-006 8.26993e-006 -36.1991 7.03241 0.127463 7.73983e-006 6.18248e-006 2.99999 -8.02946 -4.95143 -0.697684 31.7731 81.1466 149.344 -180 7.01658e-015 179.651 167.854 52.3179 -175.935 3.98695e-006 -1.13323e-006 1.01756 -18.2324 66.7577 18.5465 8.1365 25.2326 -3.48774 -69.4635 68.6556 -112.85 4.54188e-006 -4.6773e-006 -0.202306 -17.5599 -58.9438 -7.73325 -3.7565e-006 -3.99298e-006 -0.75207 20.1809 68.8704 -20.3107 -8.13649 25.2327 3.48774 
56.9461 72.0035 5.18892 7.25017 39.3034 -13.0842 0.874459 2.54331 0.603602 1.72995 9.09688 1.05785 1.7223 10.7414 1.03075 10.6162 42.5569 -9.7202 7.52744 -1.33379 -3.17079 36.1196 -5.60203 -1.9372 115.305 22.1303 -56.1685 1.57472e-006 4.95179e-007 -3.41596e-006 22.4543 70.2217 -16.9186 -3.04045e-006 -1.09151e-005 -3 8.02892 -4.95084 0.697403 -31.9442 -1.65386 -2.38783 -137.917 41.5361 43.7931 -7.34856e-007 -4.96868e-006 8.26993e-006 -36.2891 7.17045 0.161896 7.73983e-006 6.18248e-006 2.99999 -8.02946 -4.95143 -0.697684 31.6171 81.0177 149.531 -180 7.01658e-015 179.65 167.804 52.4709 -175.896 3.98695e-006 -1.13323e-006 1.0213 -18.2374 66.757 18.5458 8.1365 25.2326 -3.48774 -69.1732 68.5904 -113.181 4.54188e-006 -4.6773e-006 -0.202637 -17.5928 -59.0494 -7.76418 -3.7565e-006 -3.99298e-006 -0.755632 20.1776 68.8631 -20.3042 -8.13649 25.2327 3.48774 
56.9081 71.9098 5.1206 7.17096 39.2827 -12.9481 0.873293 2.53717 0.602075 1.72829 9.08457 1.05461 1.72068 10.7291 1.02752 10.6103 42.5434 -9.71229 7.54052 -1.3 -3.16831 36.0623 -5.64143 -1.96995 115.391 22.1026 -56.2223 1.57472e-006 4.95179e-007 -3.41596e-006 22.4704 70.2478 -16.9388 -3.04045e-006 -1.09151e-005 -3 8.02892 -4.95084 0.697403 -31.8778 -1.69818 -2.35372 -137.937 41.4696 43.9406 -7.34856e-007 -4.96868e-006 8.26993e-006 -36.3776 7.30292 0.194556 7.73983e-006 6.18248e-006 2.99999 -8.02946 -4.95143 -0.697684 31.4589 80.8867 149.719 -180 7.01658e-015 179.648 167.755 52.6265 -175.857 3.98695e-006 -1.13323e-006 1.02488 -18.2441 66.7581 18.5465 8.1365 25.2327 -3.48774 -68.8841 68.5268 -113.511 4.54188e-006 -4.6773e-006 -0.203016 -17.6238 -59.155 -7.79412 -3.7565e-006 -3.99298e-006 -0.759391 20.1739 68.8555 -20.2972 -8.13649 25.2327 3.48774 
